# xmcd
#
# Track frame offsets:
#	182
#	21592
#	40545
#	60690
#	80977
#	100957
#	119150
#	140072
#
# Disc length: 2121 seconds
#
# Revision: 1
# Processed by: cddbd v1.4PL0 Copyright (c) Steve Scherf et al.
# Submitted via: EasyCDDAExtractor 5.1.0
#
DISCID=78084708
DTITLE=Orquesta La Joven - Guayao Varon
DYEAR=1900
DGENRE=Merengue
TTITLE0=El Borrachon
TTITLE1=Es Mejor
TTITLE2=Pensando En Ti
TTITLE3=Cara De Niña
TTITLE4=Cantinero
TTITLE5=Como Me Haces Falta
TTITLE6=Hoy No Estoy Para Nadie
TTITLE7=Amada Mia
EXTD=
EXTT0=
EXTT1=
EXTT2=
EXTT3=
EXTT4=
EXTT5=
EXTT6=
EXTT7=
PLAYORDER=
